<svg xmlns="http://www.w3.org/2000/svg" direction="ltr" width="506.43682673825356" height="181.56305650324714" viewBox="647.0029231835972 342.2184717483765 506.43682673825356 181.56305650324714" stroke-linecap="round" stroke-linejoin="round" style="background-color: rgb(249, 250, 251);" data-color-mode="light" class="tl-container tl-theme__force-sRGB tl-theme__light"><defs/><g transform="matrix(1, 0, 0, 1, 844.6487, 374.017)" opacity="1"><path d="M0,58.9829850495478 a58.9829850495478,58.9829850495478,0,1,1,117.9659700990956,0a58.9829850495478,58.9829850495478,0,1,1,-117.9659700990956,0 " stroke="#1d1d1d" stroke-width="3.5" fill="none"/></g><g transform="matrix(1, 0, 0, 1, 521.4899, 434)" opacity="1"><path d="M 157.513,0 L164.513,0 L 319.9781,0 M 157.513,0 L164.513,-0.003 L 321.0799,-0.0692 " stroke="#1d1d1d" stroke-width="3.5" fill="none" transform="scale(1)"/></g><g transform="matrix(1, 0, 0, 1, 962.6132, 434.4785)" opacity="1"><path d="M 0,0 L7,0 L 158.8265,0 M 0,0 L7,-0.0154 L 159.9609,-0.3518 " stroke="#1d1d1d" stroke-width="3.5" fill="none" transform="scale(1)"/></g><g transform="matrix(1, 0, 0, 1, 871.4334, 435.757)" opacity="1"><path d="M 0,0 L4.6727,5.2121 L 19.9204,22.2203 Q 24.5931,27.4324 27.5163,21.072 L 46.2631,-19.7185 Q 49.1862,-26.0789 52.5571,-19.944 L 63.5155,0 M 0,0 L4.4568,5.3979 L 19.1283,23.1674 Q 23.5851,28.5653 26.4458,22.1765 L 45.218,-19.7479 Q 48.0786,-26.1366 51.6893,-20.1397 L 63.8899,0.124 " stroke="#1d1d1d" stroke-width="3.5" fill="none" transform="scale(1)"/></g></svg>