<svg xmlns="http://www.w3.org/2000/svg" direction="ltr" width="506.43682673825356" height="181.56305650324714"
	viewBox="647.0029231835972 342.2184717483765 506.43682673825356 181.56305650324714" stroke-linecap="round"
	stroke-linejoin="round" style="background-color: rgb(249, 250, 251);" data-color-mode="light"
	class="tl-container tl-theme__force-sRGB tl-theme__light">

	<g transform="matrix(1, 0, 0, 1, 844.6487, 374.017)" opacity="1">
		<path
			d="M0,58.9829850495478 a58.9829850495478,58.9829850495478,0,1,1,117.9659700990956,0a58.9829850495478,58.9829850495478,0,1,1,-117.9659700990956,0 "
			stroke="#1d1d1d" stroke-width="3.5" fill="none" />
	</g>
	<g transform="matrix(1, 0, 0, 1, 521.4899, 434)" opacity="1">
		<path d="M 157.513,0 L164.513,0 L 319.9781,0 M 157.513,0 L164.513,-0.003 L 321.0799,-0.0692 " stroke="#1d1d1d"
			stroke-width="3.5" fill="none" transform="scale(1)" />
	</g>
	<g transform="matrix(1, 0, 0, 1, 962.6132, 434.4785)" opacity="1">
		<path d="M 0,0 L7,0 L 158.8265,0 M 0,0 L7,-0.0154 L 159.9609,-0.3518 " stroke="#1d1d1d" stroke-width="3.5"
			fill="none" transform="scale(1)" />
	</g>
	<g transform="matrix(1, 0, 0, 1, 929.447, 401.9562)" opacity="1"><text font-size="44"
			font-family="'tldraw_mono', monospace" font-style="normal" font-weight="normal" dominant-baseline="mathematical"
			alignment-baseline="mathematical" stroke="rgb(249, 250, 251)" stroke-width="2" fill="rgb(249, 250, 251)">
			<tspan alignment-baseline="mathematical" x="0" y="22.699996948242188" unicode-bidi="plaintext">+</tspan>
		</text><text font-size="44" font-family="'tldraw_mono', monospace" font-style="normal" font-weight="normal"
			dominant-baseline="mathematical" alignment-baseline="mathematical" fill="#1d1d1d">
			<tspan alignment-baseline="mathematical" x="0" y="22.699996948242188" unicode-bidi="plaintext">+</tspan>
		</text></g>
	<g transform="matrix(1, 0, 0, 1, 851.5652, 402.8821)" opacity="1"><text font-size="44"
			font-family="'tldraw_mono', monospace" font-style="normal" font-weight="normal" dominant-baseline="mathematical"
			alignment-baseline="mathematical" stroke="rgb(249, 250, 251)" stroke-width="2" fill="rgb(249, 250, 251)">
			<tspan alignment-baseline="mathematical" x="0" y="22.699996948242188" unicode-bidi="plaintext">-</tspan>
		</text><text font-size="44" font-family="'tldraw_mono', monospace" font-style="normal" font-weight="normal"
			dominant-baseline="mathematical" alignment-baseline="mathematical" fill="#1d1d1d">
			<tspan alignment-baseline="mathematical" x="0" y="22.699996948242188" unicode-bidi="plaintext">-</tspan>
		</text></g>
</svg>